HIERARCHY
ROOT Hips
{
 OFFSET 0.000000 0.000000 0.000000
 CHANNELS 6 Xposition Yposition Zposition Yrotation Xrotation Zrotation
 JOINT Chest
 {
  OFFSET 0.000000 10.080317 -0.001081
  CHANNELS 3 Yrotation Xrotation Zrotation
  JOINT Chest2
  {
   OFFSET 0.000000 11.096852 0.001963
   CHANNELS 3 Yrotation Xrotation Zrotation
   JOINT Chest3
   {
    OFFSET 0.000000 10.026525 0.000000
    CHANNELS 3 Yrotation Xrotation Zrotation
    JOINT Chest4
    {
     OFFSET 0.000000 10.026525 0.000000
     CHANNELS 3 Yrotation Xrotation Zrotation
     JOINT Neck
     {
      OFFSET 0.000000 14.108171 0.000000
      CHANNELS 3 Yrotation Xrotation Zrotation
      JOINT Head
      {
       OFFSET 0.000000 9.333493 0.004668
       CHANNELS 3 Yrotation Xrotation Zrotation
       End Site
       {
        OFFSET 0.000000 17.851786 0.002438
       }
      }
     }
     JOINT RightCollar
     {
      OFFSET -3.071622 7.873185 0.000000
      CHANNELS 3 Yrotation Xrotation Zrotation
      JOINT RightShoulder
      {
       OFFSET -14.378659 0.000000 0.000000
       CHANNELS 3 Yrotation Xrotation Zrotation
       JOINT RightElbow
       {
        OFFSET -30.778728 0.000000 0.000000
        CHANNELS 3 Yrotation Xrotation Zrotation
        JOINT RightWrist
        {
         OFFSET -25.164217 0.000000 0.000000
         CHANNELS 3 Yrotation Xrotation Zrotation
         End Site
         {
          OFFSET -18.796788 0.000000 0.000000
         }
        }
       }
      }
     }
     JOINT LeftCollar
     {
      OFFSET 3.071622 7.873185 0.000000
      CHANNELS 3 Yrotation Xrotation Zrotation
      JOINT LeftShoulder
      {
       OFFSET 14.378659 0.000000 0.000000
       CHANNELS 3 Yrotation Xrotation Zrotation
       JOINT LeftElbow
       {
        OFFSET 30.778728 0.000000 0.000000
        CHANNELS 3 Yrotation Xrotation Zrotation
        JOINT LeftWrist
        {
         OFFSET 25.164217 0.000000 0.000000
         CHANNELS 3 Yrotation Xrotation Zrotation
         End Site
         {
          OFFSET 18.796788 0.000000 0.000000
         }
        }
       }
      }
     }
    }
   }
  }
 }
 JOINT RightHip
 {
  OFFSET -8.194923 0.005295 0.000540
  CHANNELS 3 Yrotation Xrotation Zrotation
  JOINT RightKnee
  {
   OFFSET 0.000000 -42.473320 -0.000511
   CHANNELS 3 Yrotation Xrotation Zrotation
   JOINT RightAnkle
   {
    OFFSET 0.000000 -41.474259 -0.000865
    CHANNELS 3 Yrotation Xrotation Zrotation
    JOINT RightToe
    {
     OFFSET 0.000000 -7.354994 16.712725
     CHANNELS 3 Yrotation Xrotation Zrotation
     End Site
     {
      OFFSET 0.000000 -1.553903 6.764158
     }
    }
   }
  }
 }
 JOINT LeftHip
 {
  OFFSET 8.194923 0.005295 0.000540
  CHANNELS 3 Yrotation Xrotation Zrotation
  JOINT LeftKnee
  {
   OFFSET 0.000000 -42.473320 -0.000511
   CHANNELS 3 Yrotation Xrotation Zrotation
   JOINT LeftAnkle
   {
    OFFSET 0.000000 -41.474259 -0.000865
    CHANNELS 3 Yrotation Xrotation Zrotation
    JOINT LeftToe
    {
     OFFSET 0.000000 -7.354994 16.712725
     CHANNELS 3 Yrotation Xrotation Zrotation
     End Site
     {
      OFFSET 0.000000 -1.553903 6.764158
     }
    }
   }
  }
 }
}
MOTION
Frames: 12
Frame Time: 0.016667
0.000000 91.111157 0.000000 0.000000 -5.826342 0.000000 0.000000 11.116423 0.000000 0.000000 -5.290081 0.000000 0.000000 0.000000 0.000000 0.000000 0.000000 0.000000 0.000000 12.665069 0.000000 0.000000 0.575450 0.000000 0.000000 0.000000 0.000000 0.000000 0.000000 0.000000 2.337306 0.000000 0.000000 -2.337306 0.000000 0.000000 0.000000 0.000000 0.000000 0.000000 0.000000 0.000000 -2.337306 0.000000 0.000000 2.337306 0.000000 0.000000 0.000000 8.578828 0.000000 0.000000 1.905768 0.000000 0.000000 -4.658254 0.000000 0.000000 0.000000 0.000000 0.000000 8.578828 0.000000 0.000000 1.905768 0.000000 0.000000 -4.658254 0.000000 0.000000 0.000000 0.000000
-204.559328 92.817116 95.640857 2.262825 -5.428667 -0.233749 -0.119806 2.931266 -0.680666 -0.030377 1.302913 -0.298818 -0.030377 1.302913 -0.298818 -0.022145 0.977200 -0.224039 -2.228380 19.134365 0.885586 -4.361125 -0.586920 2.329932 -3.193696 0.047234 10.134405 3.129324 0.107724 72.348091 11.517445 14.130010 6.900872 -1.644806 0.636531 -9.527656 -3.469012 1.054360 -6.562228 -1.333846 -7.133486 -72.139620 -2.621908 6.306157 -7.146897 3.029428 1.004929 9.538954 -5.914720 7.725886 -1.018284 -4.144592 3.799425 -0.415189 -3.453788 -5.628574 1.326978 -0.053569 -0.031914 -0.069581 -2.145698 7.849154 1.522057 -2.099085 4.313517 -0.078102 -0.518270 -6.163117 -1.061377 0.054782 -0.029685 0.025020
-204.567484 92.817510 95.615328 2.240217 -5.399570 -0.219507 -0.112080 2.945191 -0.660575 -0.027425 1.309352 -0.289105 -0.027425 1.309352 -0.289105 -0.019949 0.982027 -0.216760 -2.231548 19.104813 0.905388 -4.374166 -0.640761 2.368323 -3.215022 0.067180 10.145018 3.122845 0.081788 72.333876 11.539968 14.142489 6.907660 -1.646981 0.639298 -9.542413 -3.490244 1.031260 -6.561194 -1.331294 -7.094407 -72.146419 -2.627819 6.326529 -7.168376 3.046455 1.019670 9.528493 -5.911289 7.664818 -1.020208 -4.123563 3.823776 -0.424157 -3.462606 -5.623250 1.332757 -0.052164 -0.025303 -0.066737 -2.124182 7.804248 1.525711 -2.098865 4.312629 -0.090661 -0.519991 -6.148585 -1.066321 0.052007 -0.025535 0.026369
-204.574224 92.820299 95.590880 2.210724 -5.379092 -0.202305 -0.099971 2.961073 -0.641181 -0.022982 1.316388 -0.281303 -0.022982 1.316388 -0.281303 -0.016630 0.987302 -0.210919 -2.233408 19.078139 0.919184 -4.382825 -0.689578 2.395205 -3.239163 0.090512 10.161008 3.130314 0.054744 72.318469 11.558578 14.127519 6.916926 -1.645749 0.644695 -9.565531 -3.521740 1.034437 -6.549545 -1.334005 -7.076577 -72.149696 -2.627694 6.341503 -7.194864 3.056742 1.017424 9.541545 -5.898720 7.596898 -1.032993 -4.108745 3.881401 -0.426367 -3.458143 -5.632717 1.336779 -0.050406 -0.021940 -0.062895 -2.117169 7.760056 1.531082 -2.092927 4.325588 -0.117737 -0.509817 -6.129363 -1.065761 0.049939 -0.030595 0.027784
-204.575575 92.822653 95.568316 2.191034 -5.364979 -0.183405 -0.096950 2.975870 -0.622072 -0.022305 1.322972 -0.273119 -0.022305 1.322972 -0.273119 -0.016136 0.992239 -0.204782 -2.242419 19.057344 0.924731 -4.401768 -0.727562 2.409042 -3.228880 0.107662 10.184417 3.099768 0.036411 72.295538 11.593501 14.088920 6.922851 -1.653097 0.656852 -9.590350 -3.547552 1.046887 -6.551632 -1.314700 -7.075707 -72.132892 -2.622959 6.375837 -7.225202 3.054736 1.020251 9.543858 -5.904384 7.530538 -1.041381 -4.092035 3.946830 -0.449444 -3.453490 -5.642682 1.347644 -0.052700 -0.021494 -0.055766 -2.115315 7.731136 1.527254 -2.089310 4.324935 -0.140022 -0.505631 -6.107511 -1.062431 0.049847 -0.033560 0.029163
-204.581145 92.824939 95.547781 2.165632 -5.360662 -0.167280 -0.102378 2.994870 -0.599743 -0.025158 1.332018 -0.263665 -0.025158 1.332018 -0.263665 -0.018293 0.999025 -0.197685 -2.246173 19.039258 0.930760 -4.411157 -0.760706 2.421987 -3.218374 0.115001 10.197137 3.083825 0.032009 72.273003 11.633858 14.055813 6.925836 -1.663093 0.669743 -9.605520 -3.536526 1.044579 -6.549793 -1.324770 -7.067279 -72.125644 -2.615029 6.375449 -7.259071 3.057367 1.030769 9.553262 -5.901601 7.479054 -1.049553 -4.084089 4.006367 -0.460604 -3.445117 -5.654823 1.344055 -0.052107 -0.019623 -0.045925 -2.120589 7.719512 1.526477 -2.076411 4.314774 -0.157575 -0.504197 -6.084287 -1.060683 0.051611 -0.035954 0.026992
-204.583899 92.823700 95.522659 2.140006 -5.355395 -0.151220 -0.100533 3.015951 -0.580998 -0.025261 1.341598 -0.255270 -0.025261 1.341598 -0.255270 -0.018384 1.006210 -0.191388 -2.246726 19.019713 0.933651 -4.413735 -0.796828 2.428228 -3.213451 0.105509 10.204774 3.051937 0.019914 72.255103 11.677706 14.046951 6.942578 -1.668428 0.659731 -9.606766 -3.544257 1.038510 -6.543469 -1.326675 -7.057702 -72.121193 -2.606707 6.376423 -7.277330 3.070872 1.011855 9.555597 -5.888445 7.427067 -1.049545 -4.081183 4.060002 -0.489292 -3.442095 -5.671853 1.355823 -0.052146 -0.009331 -0.041665 -2.116075 7.701281 1.519570 -2.065955 4.312136 -0.166936 -0.502674 -6.072276 -1.057594 0.049626 -0.030195 0.023183
-204.586296 92.823582 95.499251 2.122945 -5.353198 -0.142079 -0.093079 3.037958 -0.570207 -0.022507 1.350981 -0.252043 -0.022507 1.350981 -0.252043 -0.016322 1.013245 -0.188974 -2.251255 19.004993 0.950184 -4.427796 -0.823214 2.460525 -3.238618 0.114525 10.237421 3.004259 0.008148 72.237234 11.722477 14.065557 6.960148 -1.670656 0.682827 -9.600547 -3.585281 1.031707 -6.512652 -1.312434 -7.052678 -72.126726 -2.578298 6.388973 -7.279193 3.078341 1.012496 9.564253 -5.877883 7.376911 -1.056800 -4.077673 4.121670 -0.493511 -3.441629 -5.687834 1.360201 -0.052591 -0.005540 -0.040679 -2.093157 7.683965 1.533161 -2.073335 4.312555 -0.194767 -0.514361 -6.061340 -1.052391 0.051193 -0.025976 0.025408
-204.584759 92.824663 95.474418 2.094984 -5.351354 -0.128227 -0.097546 3.052516 -0.556799 -0.025019 1.357506 -0.246189 -0.025019 1.357506 -0.246189 -0.018217 1.018140 -0.184578 -2.244667 18.997199 0.960167 -4.419179 -0.837493 2.477013 -3.249739 0.132211 10.246030 3.021674 0.009871 72.222818 11.762973 14.065642 6.965252 -1.676940 0.690983 -9.620453 -3.587802 1.036410 -6.489351 -1.316285 -7.046765 -72.138980 -2.570639 6.409116 -7.280641 3.085942 1.006110 9.555654 -5.855053 7.329012 -1.060647 -4.075209 4.170438 -0.513522 -3.446091 -5.689724 1.374535 -0.052327 -0.004956 -0.040748 -2.056750 7.662003 1.526940 -2.075935 4.322577 -0.198047 -0.524282 -6.052596 -1.053897 0.049154 -0.024341 0.025544
-204.583027 92.826781 95.449250 2.066871 -5.346117 -0.119662 -0.096560 3.064290 -0.546670 -0.025204 1.362900 -0.241195 -0.025204 1.362900 -0.241195 -0.018364 1.022185 -0.180831 -2.235730 19.001561 0.974820 -4.407346 -0.829096 2.500818 -3.247145 0.150218 10.257609 3.033317 0.007809 72.211475 11.773513 14.064182 6.965856 -1.685964 0.693076 -9.649311 -3.591406 1.032736 -6.476230 -1.315160 -7.053062 -72.121830 -2.568468 6.447992 -7.308861 3.091204 1.000779 9.552294 -5.837556 7.278990 -1.068477 -4.065527 4.219761 -0.517564 -3.447711 -5.688948 1.381066 -0.054361 -0.007766 -0.040535 -2.015345 7.642060 1.533624 -2.080337 4.321590 -0.216548 -0.534763 -6.035857 -1.046943 0.050559 -0.024577 0.025685
-204.586682 92.828376 95.427574 2.043937 -5.342361 -0.111704 -0.081958 3.069493 -0.530593 -0.019695 1.364693 -0.234678 -0.019695 1.364693 -0.234678 -0.014247 1.023528 -0.175956 -2.237420 19.014543 0.983693 -4.412838 -0.804525 2.517084 -3.270735 0.168879 10.261512 3.033114 0.015606 72.189212 11.797918 14.061855 6.986291 -1.705919 0.698116 -9.658571 -3.616383 1.036514 -6.466604 -1.313714 -7.047845 -72.115388 -2.567549 6.466696 -7.338550 3.081066 1.010281 9.558285 -5.820224 7.238177 -1.071267 -4.072833 4.259967 -0.520745 -3.442712 -5.689933 1.373314 -0.051858 -0.008096 -0.032838 -1.980348 7.629308 1.530067 -2.091660 4.313349 -0.205901 -0.536220 -6.017859 -1.063357 0.051909 -0.023799 0.029118
-204.591929 92.827903 95.404924 2.022418 -5.333923 -0.101289 -0.076959 3.071387 -0.522375 -0.018432 1.365601 -0.231912 -0.018432 1.365601 -0.231912 -0.013305 1.024208 -0.173885 -2.230342 19.035483 0.996501 -4.403259 -0.765365 2.537441 -3.281750 0.175260 10.265083 3.037323 0.036777 72.175710 11.809072 14.076907 7.006292 -1.724758 0.685416 -9.669961 -3.621337 1.025797 -6.462186 -1.321883 -7.037931 -72.095310 -2.571230 6.492087 -7.350054 3.067575 0.998287 9.564602 -5.818561 7.193826 -1.068284 -4.068538 4.294729 -0.541011 -3.423503 -5.695738 1.368017 -0.048733 -0.001917 -0.023662 -1.985086 7.606355 1.529230 -2.083961 4.315681 -0.214836 -0.524897 -6.005842 -1.065501 0.051333 -0.021895 0.027061
